<mxfile host="app.diagrams.net" agent="Mozilla/5.0 (Macintosh; Intel Mac OS X 10_15_7) AppleWebKit/537.36 (KHTML, like Gecko) Chrome/130.0.0.0 Safari/537.36" version="24.8.4">
  <diagram name="Flowchart" id="NMnFKY25-j_0YNjDQCf5">
    <mxGraphModel dx="2452" dy="1530" grid="0" gridSize="10" guides="1" tooltips="1" connect="1" arrows="1" fold="1" page="0" pageScale="1" pageWidth="827" pageHeight="1169" math="0" shadow="0">
      <root>
        <mxCell id="0" />
        <mxCell id="1" parent="0" />
        <mxCell id="2AZe6NPGhOAmhWtYaGuO-10" style="edgeStyle=orthogonalEdgeStyle;rounded=0;orthogonalLoop=1;jettySize=auto;html=1;exitX=0.5;exitY=1;exitDx=0;exitDy=0;entryX=0.5;entryY=0;entryDx=0;entryDy=0;" edge="1" parent="1" source="2cAOn64f0t8CnZx84zxq-1" target="2AZe6NPGhOAmhWtYaGuO-1">
          <mxGeometry relative="1" as="geometry" />
        </mxCell>
        <mxCell id="2cAOn64f0t8CnZx84zxq-1" value="开始" style="rounded=1;whiteSpace=wrap;html=1;" parent="1" vertex="1">
          <mxGeometry x="230" y="-168" width="120" height="60" as="geometry" />
        </mxCell>
        <mxCell id="2cAOn64f0t8CnZx84zxq-3" value="继续自增取模" style="rounded=1;whiteSpace=wrap;html=1;" parent="1" vertex="1">
          <mxGeometry x="226.5" y="420" width="127" height="60" as="geometry" />
        </mxCell>
        <mxCell id="2AZe6NPGhOAmhWtYaGuO-17" style="edgeStyle=orthogonalEdgeStyle;rounded=0;orthogonalLoop=1;jettySize=auto;html=1;exitX=0.5;exitY=1;exitDx=0;exitDy=0;entryX=1;entryY=0.5;entryDx=0;entryDy=0;" edge="1" parent="1" source="2cAOn64f0t8CnZx84zxq-4" target="2cAOn64f0t8CnZx84zxq-11">
          <mxGeometry relative="1" as="geometry" />
        </mxCell>
        <mxCell id="2cAOn64f0t8CnZx84zxq-4" value="&lt;div&gt;开始新一轮，起点设置为上一轮的起点+1。&lt;/div&gt;" style="rounded=1;whiteSpace=wrap;html=1;fillColor=#dae8fc;strokeColor=#6c8ebf;" parent="1" vertex="1">
          <mxGeometry x="432" y="416" width="120" height="60" as="geometry" />
        </mxCell>
        <mxCell id="2cAOn64f0t8CnZx84zxq-39" style="edgeStyle=orthogonalEdgeStyle;rounded=0;orthogonalLoop=1;jettySize=auto;html=1;exitX=0.5;exitY=1;exitDx=0;exitDy=0;entryX=0.5;entryY=0;entryDx=0;entryDy=0;" parent="1" target="2cAOn64f0t8CnZx84zxq-37" edge="1">
          <mxGeometry relative="1" as="geometry">
            <mxPoint x="290" y="20" as="sourcePoint" />
          </mxGeometry>
        </mxCell>
        <mxCell id="2cAOn64f0t8CnZx84zxq-9" value="结束" style="rounded=1;whiteSpace=wrap;html=1;" parent="1" vertex="1">
          <mxGeometry x="230" y="826" width="120" height="60" as="geometry" />
        </mxCell>
        <mxCell id="2cAOn64f0t8CnZx84zxq-16" style="edgeStyle=orthogonalEdgeStyle;rounded=1;orthogonalLoop=1;jettySize=auto;html=1;exitX=0.5;exitY=1;exitDx=0;exitDy=0;entryX=0.5;entryY=0;entryDx=0;entryDy=0;" parent="1" source="2cAOn64f0t8CnZx84zxq-3" target="2cAOn64f0t8CnZx84zxq-11" edge="1">
          <mxGeometry relative="1" as="geometry">
            <mxPoint x="290" y="540" as="targetPoint" />
          </mxGeometry>
        </mxCell>
        <mxCell id="2cAOn64f0t8CnZx84zxq-32" style="edgeStyle=orthogonalEdgeStyle;rounded=0;orthogonalLoop=1;jettySize=auto;html=1;exitX=0.5;exitY=1;exitDx=0;exitDy=0;entryX=0.5;entryY=0;entryDx=0;entryDy=0;" parent="1" source="2cAOn64f0t8CnZx84zxq-11" edge="1">
          <mxGeometry relative="1" as="geometry">
            <mxPoint x="290" y="640" as="targetPoint" />
          </mxGeometry>
        </mxCell>
        <mxCell id="2cAOn64f0t8CnZx84zxq-11" value="插入序列" style="rounded=1;whiteSpace=wrap;html=1;" parent="1" vertex="1">
          <mxGeometry x="200" y="550" width="180" height="60" as="geometry" />
        </mxCell>
        <mxCell id="2AZe6NPGhOAmhWtYaGuO-16" style="edgeStyle=orthogonalEdgeStyle;rounded=0;orthogonalLoop=1;jettySize=auto;html=1;exitX=0.5;exitY=1;exitDx=0;exitDy=0;" edge="1" parent="1" source="2cAOn64f0t8CnZx84zxq-26" target="2cAOn64f0t8CnZx84zxq-9">
          <mxGeometry relative="1" as="geometry" />
        </mxCell>
        <mxCell id="2cAOn64f0t8CnZx84zxq-26" value="该月的序列是否分配完成" style="rhombus;whiteSpace=wrap;html=1;" parent="1" vertex="1">
          <mxGeometry x="215" y="643" width="150" height="80" as="geometry" />
        </mxCell>
        <mxCell id="2cAOn64f0t8CnZx84zxq-31" style="edgeStyle=orthogonalEdgeStyle;rounded=0;orthogonalLoop=1;jettySize=auto;html=1;exitX=0;exitY=0.5;exitDx=0;exitDy=0;entryX=0;entryY=0.5;entryDx=0;entryDy=0;" parent="1" target="2AZe6NPGhOAmhWtYaGuO-4" edge="1">
          <mxGeometry relative="1" as="geometry">
            <Array as="points">
              <mxPoint x="100" y="680" />
              <mxPoint x="100" y="337" />
            </Array>
            <mxPoint x="215" y="680" as="sourcePoint" />
            <mxPoint x="200" y="330" as="targetPoint" />
          </mxGeometry>
        </mxCell>
        <mxCell id="2AZe6NPGhOAmhWtYaGuO-8" style="edgeStyle=orthogonalEdgeStyle;rounded=0;orthogonalLoop=1;jettySize=auto;html=1;exitX=0.5;exitY=1;exitDx=0;exitDy=0;" edge="1" parent="1" source="2cAOn64f0t8CnZx84zxq-37" target="2AZe6NPGhOAmhWtYaGuO-6">
          <mxGeometry relative="1" as="geometry" />
        </mxCell>
        <mxCell id="2cAOn64f0t8CnZx84zxq-37" value="从上一个值班记录继续分配" style="rounded=1;whiteSpace=wrap;html=1;" parent="1" vertex="1">
          <mxGeometry x="200" y="70" width="180" height="60" as="geometry" />
        </mxCell>
        <mxCell id="2cAOn64f0t8CnZx84zxq-42" value="是" style="text;html=1;align=center;verticalAlign=middle;resizable=0;points=[];autosize=1;strokeColor=none;fillColor=none;" parent="1" vertex="1">
          <mxGeometry x="296" y="36" width="30" height="26" as="geometry" />
        </mxCell>
        <mxCell id="2cAOn64f0t8CnZx84zxq-44" value="否" style="text;html=1;align=center;verticalAlign=middle;resizable=0;points=[];autosize=1;strokeColor=none;fillColor=none;" parent="1" vertex="1">
          <mxGeometry x="141" y="647" width="30" height="26" as="geometry" />
        </mxCell>
        <mxCell id="2cAOn64f0t8CnZx84zxq-46" value="是" style="text;html=1;align=center;verticalAlign=middle;resizable=0;points=[];autosize=1;strokeColor=none;fillColor=none;" parent="1" vertex="1">
          <mxGeometry x="335" y="767" width="30" height="26" as="geometry" />
        </mxCell>
        <mxCell id="2AZe6NPGhOAmhWtYaGuO-9" style="edgeStyle=orthogonalEdgeStyle;rounded=0;orthogonalLoop=1;jettySize=auto;html=1;exitX=0;exitY=0.5;exitDx=0;exitDy=0;entryX=0.5;entryY=0;entryDx=0;entryDy=0;" edge="1" parent="1" source="2AZe6NPGhOAmhWtYaGuO-1" target="2AZe6NPGhOAmhWtYaGuO-2">
          <mxGeometry relative="1" as="geometry" />
        </mxCell>
        <mxCell id="2AZe6NPGhOAmhWtYaGuO-1" value="能否找到上一个值班记录" style="rhombus;whiteSpace=wrap;html=1;" vertex="1" parent="1">
          <mxGeometry x="201.5" y="-50" width="177" height="80" as="geometry" />
        </mxCell>
        <mxCell id="2AZe6NPGhOAmhWtYaGuO-7" style="edgeStyle=orthogonalEdgeStyle;rounded=0;orthogonalLoop=1;jettySize=auto;html=1;exitX=0.5;exitY=1;exitDx=0;exitDy=0;entryX=0;entryY=0.5;entryDx=0;entryDy=0;" edge="1" parent="1" source="2AZe6NPGhOAmhWtYaGuO-2" target="2AZe6NPGhOAmhWtYaGuO-6">
          <mxGeometry relative="1" as="geometry" />
        </mxCell>
        <mxCell id="2AZe6NPGhOAmhWtYaGuO-2" value="从第一个组员开始分配" style="rounded=1;whiteSpace=wrap;html=1;fillColor=#dae8fc;strokeColor=#6c8ebf;" vertex="1" parent="1">
          <mxGeometry x="-42" y="72" width="180" height="60" as="geometry" />
        </mxCell>
        <mxCell id="2AZe6NPGhOAmhWtYaGuO-12" style="edgeStyle=orthogonalEdgeStyle;rounded=0;orthogonalLoop=1;jettySize=auto;html=1;exitX=0.5;exitY=1;exitDx=0;exitDy=0;entryX=0.5;entryY=0;entryDx=0;entryDy=0;" edge="1" parent="1" source="2AZe6NPGhOAmhWtYaGuO-4" target="2cAOn64f0t8CnZx84zxq-3">
          <mxGeometry relative="1" as="geometry" />
        </mxCell>
        <mxCell id="2AZe6NPGhOAmhWtYaGuO-13" style="edgeStyle=orthogonalEdgeStyle;rounded=0;orthogonalLoop=1;jettySize=auto;html=1;exitX=1;exitY=0.5;exitDx=0;exitDy=0;" edge="1" parent="1" source="2AZe6NPGhOAmhWtYaGuO-4" target="2cAOn64f0t8CnZx84zxq-4">
          <mxGeometry relative="1" as="geometry" />
        </mxCell>
        <mxCell id="2AZe6NPGhOAmhWtYaGuO-4" value="是否设置了序列动态循环&amp;amp;&amp;amp;&lt;div&gt;这一轮结束&lt;/div&gt;" style="rhombus;whiteSpace=wrap;html=1;fillColor=#dae8fc;strokeColor=#6c8ebf;" vertex="1" parent="1">
          <mxGeometry x="190.5" y="290" width="199" height="94" as="geometry" />
        </mxCell>
        <mxCell id="2AZe6NPGhOAmhWtYaGuO-11" style="edgeStyle=orthogonalEdgeStyle;rounded=0;orthogonalLoop=1;jettySize=auto;html=1;exitX=0.5;exitY=1;exitDx=0;exitDy=0;entryX=0.5;entryY=0;entryDx=0;entryDy=0;" edge="1" parent="1" source="2AZe6NPGhOAmhWtYaGuO-6" target="2AZe6NPGhOAmhWtYaGuO-4">
          <mxGeometry relative="1" as="geometry" />
        </mxCell>
        <mxCell id="2AZe6NPGhOAmhWtYaGuO-6" value="开始分配" style="rounded=1;whiteSpace=wrap;html=1;" vertex="1" parent="1">
          <mxGeometry x="200" y="185" width="180" height="60" as="geometry" />
        </mxCell>
        <mxCell id="2AZe6NPGhOAmhWtYaGuO-14" value="否" style="text;html=1;align=center;verticalAlign=middle;resizable=0;points=[];autosize=1;strokeColor=none;fillColor=none;" vertex="1" parent="1">
          <mxGeometry x="291" y="384" width="30" height="26" as="geometry" />
        </mxCell>
        <mxCell id="2AZe6NPGhOAmhWtYaGuO-15" value="是" style="text;html=1;align=center;verticalAlign=middle;resizable=0;points=[];autosize=1;strokeColor=none;fillColor=none;" vertex="1" parent="1">
          <mxGeometry x="404" y="313" width="30" height="26" as="geometry" />
        </mxCell>
        <mxCell id="2AZe6NPGhOAmhWtYaGuO-18" value="否" style="text;html=1;align=center;verticalAlign=middle;resizable=0;points=[];autosize=1;strokeColor=none;fillColor=none;" vertex="1" parent="1">
          <mxGeometry x="124" y="-42" width="30" height="26" as="geometry" />
        </mxCell>
      </root>
    </mxGraphModel>
  </diagram>
</mxfile>
